<?xml version="1.0" encoding="UTF-8" standalone="no"?>
<svg
   xmlns:dc="http://purl.org/dc/elements/1.1/"
   xmlns:cc="http://creativecommons.org/ns#"
   xmlns:rdf="http://www.w3.org/1999/02/22-rdf-syntax-ns#"
   xmlns:svg="http://www.w3.org/2000/svg"
   xmlns="http://www.w3.org/2000/svg"
   xmlns:sodipodi="http://sodipodi.sourceforge.net/DTD/sodipodi-0.dtd"
   xmlns:inkscape="http://www.inkscape.org/namespaces/inkscape"
   viewBox="0 0 16 16"
   version="1.1"
   id="svg4"
   sodipodi:docname="cover.svg"
   inkscape:version="0.92.2 5c3e80d, 2017-08-06">
  <metadata
     id="metadata10">
    <rdf:RDF>
      <cc:Work
         rdf:about="">
        <dc:format>image/svg+xml</dc:format>
        <dc:type
           rdf:resource="http://purl.org/dc/dcmitype/StillImage" />
      </cc:Work>
    </rdf:RDF>
  </metadata>
  <defs
     id="defs8" />
  <sodipodi:namedview
     pagecolor="#ffffff"
     bordercolor="#666666"
     borderopacity="1"
     objecttolerance="10"
     gridtolerance="10"
     guidetolerance="10"
     inkscape:pageopacity="0"
     inkscape:pageshadow="2"
     inkscape:window-width="1291"
     inkscape:window-height="854"
     id="namedview6"
     showgrid="false"
     inkscape:zoom="14.75"
     inkscape:cx="8"
     inkscape:cy="8"
     inkscape:window-x="12"
     inkscape:window-y="2"
     inkscape:window-maximized="0"
     inkscape:current-layer="svg4" />
  <path
     d="m 4.6840191,4.5084746 c -0.4959088,0 -0.9043584,0.3942332 -0.9043584,0.8728814 v 5.237288 c 0,0.478647 0.4084496,0.872881 0.9043584,0.872881 H 11.31598 c 0.495908,0 0.904359,-0.394234 0.904359,-0.872881 V 5.381356 c 0,-0.4786482 -0.408451,-0.8728814 -0.904359,-0.8728814 z m 0,0.5819209 H 11.31598 c 0.1697,0 0.301453,0.127168 0.301453,0.2909605 V 9.610511 L 9.5037313,7.4567222 8.3273589,8.7353573 6.5127541,6.8884402 4.3825663,9.2024845 V 5.381356 c 0,-0.1637925 0.1317537,-0.2909605 0.3014528,-0.2909605 z M 9.8087163,5.6723164 A 0.60290557,0.5819209 0 0 0 9.2058111,6.2542373 0.60290557,0.5819209 0 0 0 9.8087163,6.8361582 0.60290557,0.5819209 0 0 0 10.411621,6.2542373 0.60290557,0.5819209 0 0 0 9.8087163,5.6723164 Z M 6.5268847,7.7476827 9.6320843,10.909604 H 4.6840191 c -0.1696991,0 -0.3014528,-0.127167 -0.3014528,-0.29096 v -0.539868 z m 2.9909765,0.5694188 2.0995718,2.1378775 v 0.163665 c 0,0.163793 -0.131753,0.29096 -0.301453,0.29096 H 10.462256 L 8.7430339,9.158159 Z"
     id="path2"
     inkscape:connector-curvature="0"
     style="fill:#a5a5a5;stroke-width:0.59232032" />
</svg>
