<?xml version="1.0" encoding="UTF-8"?>
<svg xmlns="http://www.w3.org/2000/svg" xmlns:xlink="http://www.w3.org/1999/xlink" width="16.2pt" height="14pt" viewBox="0 0 16.2 14" version="1.1">
<defs>
<clipPath id="clip1">
  <path d="M 3 0 L 9 0 L 9 14 L 3 14 Z M 3 0 "/>
</clipPath>
<clipPath id="clip2">
  <path d="M 2.140625 0 L 16.199219 0 L 16.199219 11.882812 C 16.257812 11.933594 16.308594 11.988281 16.359375 12.046875 C 16.492188 12.210938 16.59375 12.402344 16.648438 12.605469 C 16.6875 12.753906 16.703125 12.90625 16.699219 13.054688 C 16.679688 13.605469 16.34375 14.113281 15.847656 14.351562 C 15.710938 14.417969 15.566406 14.460938 15.414062 14.484375 C 15.234375 14.511719 15.050781 14.503906 14.875 14.464844 C 14.699219 14.425781 14.527344 14.351562 14.378906 14.253906 C 14.308594 14.210938 14.292969 14.195312 14.230469 14.144531 L 14.058594 14 L 16.199219 14 L 16.199219 11.882812 C 16.191406 11.875 16.179688 11.863281 16.167969 11.855469 Z M -0.0273438 2.089844 C -0.0507812 2.074219 -0.0664062 2.054688 -0.0976562 2.019531 C -0.222656 1.886719 -0.320312 1.734375 -0.390625 1.566406 C -0.597656 1.054688 -0.503906 0.453125 -0.144531 0.03125 C -0.046875 -0.0820312 0.0664062 -0.183594 0.195312 -0.265625 C 0.347656 -0.363281 0.519531 -0.433594 0.695312 -0.46875 C 0.773438 -0.484375 0.792969 -0.484375 0.875 -0.496094 C 0.964844 -0.5 0.964844 -0.5 1.054688 -0.5 C 1.136719 -0.492188 1.15625 -0.492188 1.234375 -0.480469 C 1.414062 -0.453125 1.589844 -0.390625 1.746094 -0.300781 C 1.824219 -0.257812 1.898438 -0.203125 1.96875 -0.144531 L 2.140625 0 L -0.0273438 0 L -0.0273438 2.089844 C -0.0117188 2.105469 0.00390625 2.121094 0.03125 2.144531 L 14.058594 14 L -0.0273438 14 Z M -0.0273438 2.089844 "/>
</clipPath>
<clipPath id="clip3">
  <path d="M 0 4 L 7 4 L 7 10 L 0 10 Z M 0 4 "/>
</clipPath>
<clipPath id="clip4">
  <path d="M 2.140625 0 L 16.199219 0 L 16.199219 11.882812 C 16.257812 11.933594 16.308594 11.988281 16.359375 12.046875 C 16.492188 12.210938 16.59375 12.402344 16.648438 12.605469 C 16.6875 12.753906 16.703125 12.90625 16.699219 13.054688 C 16.679688 13.605469 16.34375 14.113281 15.847656 14.351562 C 15.710938 14.417969 15.566406 14.460938 15.414062 14.484375 C 15.234375 14.511719 15.050781 14.503906 14.875 14.464844 C 14.699219 14.425781 14.527344 14.351562 14.378906 14.253906 C 14.308594 14.210938 14.292969 14.195312 14.230469 14.144531 L 14.058594 14 L 16.199219 14 L 16.199219 11.882812 C 16.191406 11.875 16.179688 11.863281 16.167969 11.855469 Z M -0.0273438 2.089844 C -0.0507812 2.074219 -0.0664062 2.054688 -0.0976562 2.019531 C -0.222656 1.886719 -0.320312 1.734375 -0.390625 1.566406 C -0.597656 1.054688 -0.503906 0.453125 -0.144531 0.03125 C -0.046875 -0.0820312 0.0664062 -0.183594 0.195312 -0.265625 C 0.347656 -0.363281 0.519531 -0.433594 0.695312 -0.46875 C 0.773438 -0.484375 0.792969 -0.484375 0.875 -0.496094 C 0.964844 -0.5 0.964844 -0.5 1.054688 -0.5 C 1.136719 -0.492188 1.15625 -0.492188 1.234375 -0.480469 C 1.414062 -0.453125 1.589844 -0.390625 1.746094 -0.300781 C 1.824219 -0.257812 1.898438 -0.203125 1.96875 -0.144531 L 2.140625 0 L -0.0273438 0 L -0.0273438 2.089844 C -0.0117188 2.105469 0.00390625 2.121094 0.03125 2.144531 L 14.058594 14 L -0.0273438 14 Z M -0.0273438 2.089844 "/>
</clipPath>
<clipPath id="clip5">
  <path d="M 13 1 L 16.199219 1 L 16.199219 13 L 13 13 Z M 13 1 "/>
</clipPath>
<clipPath id="clip6">
  <path d="M 2.140625 0 L 16.199219 0 L 16.199219 11.882812 C 16.257812 11.933594 16.308594 11.988281 16.359375 12.046875 C 16.492188 12.210938 16.59375 12.402344 16.648438 12.605469 C 16.6875 12.753906 16.703125 12.90625 16.699219 13.054688 C 16.679688 13.605469 16.34375 14.113281 15.847656 14.351562 C 15.710938 14.417969 15.566406 14.460938 15.414062 14.484375 C 15.234375 14.511719 15.050781 14.503906 14.875 14.464844 C 14.699219 14.425781 14.527344 14.351562 14.378906 14.253906 C 14.308594 14.210938 14.292969 14.195312 14.230469 14.144531 L 14.058594 14 L 16.199219 14 L 16.199219 11.882812 C 16.191406 11.875 16.179688 11.863281 16.167969 11.855469 Z M -0.0273438 2.089844 C -0.0507812 2.074219 -0.0664062 2.054688 -0.0976562 2.019531 C -0.222656 1.886719 -0.320312 1.734375 -0.390625 1.566406 C -0.597656 1.054688 -0.503906 0.453125 -0.144531 0.03125 C -0.046875 -0.0820312 0.0664062 -0.183594 0.195312 -0.265625 C 0.347656 -0.363281 0.519531 -0.433594 0.695312 -0.46875 C 0.773438 -0.484375 0.792969 -0.484375 0.875 -0.496094 C 0.964844 -0.5 0.964844 -0.5 1.054688 -0.5 C 1.136719 -0.492188 1.15625 -0.492188 1.234375 -0.480469 C 1.414062 -0.453125 1.589844 -0.390625 1.746094 -0.300781 C 1.824219 -0.257812 1.898438 -0.203125 1.96875 -0.144531 L 2.140625 0 L -0.0273438 0 L -0.0273438 2.089844 C -0.0117188 2.105469 0.00390625 2.121094 0.03125 2.144531 L 14.058594 14 L -0.0273438 14 Z M -0.0273438 2.089844 "/>
</clipPath>
<clipPath id="clip7">
  <path d="M 9 3 L 13 3 L 13 11 L 9 11 Z M 9 3 "/>
</clipPath>
<clipPath id="clip8">
  <path d="M 2.140625 0 L 16.199219 0 L 16.199219 11.882812 C 16.257812 11.933594 16.308594 11.988281 16.359375 12.046875 C 16.492188 12.210938 16.59375 12.402344 16.648438 12.605469 C 16.6875 12.753906 16.703125 12.90625 16.699219 13.054688 C 16.679688 13.605469 16.34375 14.113281 15.847656 14.351562 C 15.710938 14.417969 15.566406 14.460938 15.414062 14.484375 C 15.234375 14.511719 15.050781 14.503906 14.875 14.464844 C 14.699219 14.425781 14.527344 14.351562 14.378906 14.253906 C 14.308594 14.210938 14.292969 14.195312 14.230469 14.144531 L 14.058594 14 L 16.199219 14 L 16.199219 11.882812 C 16.191406 11.875 16.179688 11.863281 16.167969 11.855469 Z M -0.0273438 2.089844 C -0.0507812 2.074219 -0.0664062 2.054688 -0.0976562 2.019531 C -0.222656 1.886719 -0.320312 1.734375 -0.390625 1.566406 C -0.597656 1.054688 -0.503906 0.453125 -0.144531 0.03125 C -0.046875 -0.0820312 0.0664062 -0.183594 0.195312 -0.265625 C 0.347656 -0.363281 0.519531 -0.433594 0.695312 -0.46875 C 0.773438 -0.484375 0.792969 -0.484375 0.875 -0.496094 C 0.964844 -0.5 0.964844 -0.5 1.054688 -0.5 C 1.136719 -0.492188 1.15625 -0.492188 1.234375 -0.480469 C 1.414062 -0.453125 1.589844 -0.390625 1.746094 -0.300781 C 1.824219 -0.257812 1.898438 -0.203125 1.96875 -0.144531 L 2.140625 0 L -0.0273438 0 L -0.0273438 2.089844 C -0.0117188 2.105469 0.00390625 2.121094 0.03125 2.144531 L 14.058594 14 L -0.0273438 14 Z M -0.0273438 2.089844 "/>
</clipPath>
</defs>
<g id="surface1">
<g clip-path="url(#clip1)" clip-rule="nonzero">
<g clip-path="url(#clip2)" clip-rule="evenodd">
<path style=" stroke:none;fill-rule:nonzero;fill:rgb(64.7%,64.7%,64.7%);fill-opacity:1;" d="M 8.03125 13.738281 C 8.03125 13.992188 7.886719 14.078125 7.710938 13.921875 L 3.355469 9.574219 C 3.175781 9.421875 3.03125 9.085938 3.03125 8.832031 L 3.03125 5.125 C 3.03125 4.867188 3.175781 4.535156 3.355469 4.378906 L 7.710938 0.078125 C 7.886719 -0.078125 8.03125 0.0078125 8.03125 0.261719 Z M 8.03125 13.738281 "/>
</g>
</g>
<g clip-path="url(#clip3)" clip-rule="nonzero">
<g clip-path="url(#clip4)" clip-rule="evenodd">
<path style=" stroke:none;fill-rule:nonzero;fill:rgb(64.7%,64.7%,64.7%);fill-opacity:1;" d="M 6.03125 9 C 6.03125 9.550781 5.492188 10 4.832031 10 L 1.199219 10 C 0.539062 10 0 9.550781 0 9 L 0 5 C 0 4.449219 0.539062 4 1.199219 4 L 4.832031 4 C 5.492188 4 6.03125 4.449219 6.03125 5 Z M 6.03125 9 "/>
</g>
</g>
<g clip-path="url(#clip5)" clip-rule="nonzero">
<g clip-path="url(#clip6)" clip-rule="evenodd">
<path style=" stroke:none;fill-rule:nonzero;fill:rgb(64.7%,64.7%,64.7%);fill-opacity:1;" d="M 13.738281 12.679688 C 13.625 12.679688 13.507812 12.640625 13.414062 12.558594 C 13.203125 12.382812 13.175781 12.066406 13.355469 11.855469 C 15.808594 8.960938 15.808594 4.914062 13.355469 2.019531 C 13.175781 1.808594 13.203125 1.496094 13.414062 1.316406 C 13.625 1.136719 13.941406 1.164062 14.121094 1.375 C 16.894531 4.648438 16.894531 9.226562 14.121094 12.5 C 14.019531 12.617188 13.878906 12.679688 13.738281 12.679688 "/>
</g>
</g>
<g clip-path="url(#clip7)" clip-rule="nonzero">
<g clip-path="url(#clip8)" clip-rule="evenodd">
<path style=" stroke:none;fill-rule:nonzero;fill:rgb(64.7%,64.7%,64.7%);fill-opacity:1;" d="M 10.457031 10.710938 C 10.339844 10.710938 10.222656 10.667969 10.128906 10.585938 C 9.921875 10.402344 9.902344 10.085938 10.082031 9.878906 C 11.574219 8.183594 11.574219 5.816406 10.082031 4.121094 C 9.902344 3.914062 9.921875 3.597656 10.128906 3.414062 C 10.335938 3.230469 10.652344 3.253906 10.832031 3.460938 C 12.667969 5.542969 12.667969 8.457031 10.832031 10.539062 C 10.734375 10.652344 10.597656 10.710938 10.457031 10.710938 "/>
</g>
</g>
<path style="fill:none;stroke-width:1;stroke-linecap:round;stroke-linejoin:round;stroke:rgb(64.7%,64.7%,64.7%);stroke-opacity:1;stroke-miterlimit:10;" d="M 1 13 L 15.199219 1 " transform="matrix(1,0,0,-1,0,14)"/>
</g>
</svg>
