<?xml version="1.0" encoding="UTF-8"?>
<svg xmlns="http://www.w3.org/2000/svg" xmlns:xlink="http://www.w3.org/1999/xlink" width="24pt" height="24pt" viewBox="0 0 24 24" version="1.1">
<g id="surface1">
<path style=" stroke:none;fill-rule:evenodd;fill:rgb(64.7%,64.7%,64.7%);fill-opacity:1;" d="M 10 2 C 10 1.449219 9.550781 1 9 1 C 7.464844 1 4.535156 1 3 1 C 2.449219 1 2 1.449219 2 2 C 2 5.664062 2 18.335938 2 22 C 2 22.550781 2.449219 23 3 23 C 4.535156 23 7.464844 23 9 23 C 9.550781 23 10 22.550781 10 22 C 10 18.335938 10 5.664062 10 2 Z M 10 2 "/>
<path style=" stroke:none;fill-rule:evenodd;fill:rgb(64.7%,64.7%,64.7%);fill-opacity:1;" d="M 22 2 C 22 1.449219 21.550781 1 21 1 C 19.464844 1 16.535156 1 15 1 C 14.449219 1 14 1.449219 14 2 C 14 5.664062 14 18.335938 14 22 C 14 22.550781 14.449219 23 15 23 C 16.535156 23 19.464844 23 21 23 C 21.550781 23 22 22.550781 22 22 C 22 18.335938 22 5.664062 22 2 Z M 22 2 "/>
</g>
</svg>
