<?xml version="1.0" encoding="UTF-8"?>
<svg xmlns="http://www.w3.org/2000/svg" xmlns:xlink="http://www.w3.org/1999/xlink" width="24pt" height="24pt" viewBox="0 0 24 24" version="1.1">
<g id="surface1">
<path style=" stroke:none;fill-rule:evenodd;fill:rgb(64.7%,64.7%,64.7%);fill-opacity:1;" d="M 9.59375 11.257812 C 9.839844 11.421875 9.988281 11.703125 9.988281 12 C 9.988281 12.296875 9.839844 12.578125 9.59375 12.742188 C 7.625 14.054688 3.535156 16.78125 1.386719 18.210938 C 1.113281 18.394531 0.761719 18.414062 0.472656 18.257812 C 0.179688 18.101562 0 17.800781 0 17.46875 C 0 14.722656 0 9.277344 0 6.53125 C 0 6.199219 0.179688 5.898438 0.472656 5.742188 C 0.761719 5.585938 1.113281 5.605469 1.386719 5.785156 C 3.535156 7.21875 7.625 9.945312 9.59375 11.257812 "/>
<path style=" stroke:none;fill-rule:evenodd;fill:rgb(64.7%,64.7%,64.7%);fill-opacity:1;" d="M 19.582031 11.257812 C 19.832031 11.421875 19.980469 11.703125 19.980469 12 C 19.980469 12.296875 19.832031 12.578125 19.582031 12.742188 C 17.613281 14.054688 13.523438 16.78125 11.375 18.210938 C 11.101562 18.394531 10.75 18.414062 10.460938 18.257812 C 10.171875 18.101562 9.988281 17.800781 9.988281 17.46875 L 9.988281 6.53125 C 9.988281 6.199219 10.171875 5.898438 10.460938 5.742188 C 10.75 5.585938 11.101562 5.605469 11.375 5.785156 C 13.523438 7.21875 17.613281 9.945312 19.582031 11.257812 "/>
<path style=" stroke:none;fill-rule:evenodd;fill:rgb(64.7%,64.7%,64.7%);fill-opacity:1;" d="M 19.980469 17.539062 C 19.980469 17.847656 20.117188 18.09375 20.285156 18.09375 L 22.105469 18.09375 C 22.273438 18.09375 22.410156 17.847656 22.410156 17.539062 L 22.410156 6.460938 C 22.410156 6.152344 22.273438 5.90625 22.105469 5.90625 L 20.285156 5.90625 C 20.117188 5.90625 19.980469 6.152344 19.980469 6.460938 Z M 19.980469 17.539062 "/>
</g>
</svg>
