<?xml version="1.0" encoding="UTF-8"?>
<svg xmlns="http://www.w3.org/2000/svg" xmlns:xlink="http://www.w3.org/1999/xlink" width="24pt" height="24pt" viewBox="0 0 24 24" version="1.1">
<g id="surface1">
<path style=" stroke:none;fill-rule:evenodd;fill:rgb(64.7%,64.7%,64.7%);fill-opacity:1;" d="M 14.40625 12.742188 C 14.160156 12.578125 14.007812 12.296875 14.007812 12 C 14.007812 11.703125 14.160156 11.421875 14.40625 11.257812 C 16.375 9.945312 20.464844 7.21875 22.613281 5.789062 C 22.886719 5.605469 23.238281 5.585938 23.527344 5.742188 C 23.820312 5.898438 24 6.199219 24 6.53125 L 24 17.46875 C 24 17.800781 23.820312 18.101562 23.527344 18.257812 C 23.238281 18.414062 22.886719 18.394531 22.613281 18.214844 C 20.464844 16.78125 16.375 14.054688 14.40625 12.742188 "/>
<path style=" stroke:none;fill-rule:evenodd;fill:rgb(64.7%,64.7%,64.7%);fill-opacity:1;" d="M 4.417969 12.742188 C 4.167969 12.578125 4.019531 12.296875 4.019531 12 C 4.019531 11.703125 4.167969 11.421875 4.417969 11.257812 C 6.386719 9.945312 10.476562 7.21875 12.621094 5.789062 C 12.898438 5.605469 13.25 5.585938 13.539062 5.742188 C 13.828125 5.898438 14.011719 6.199219 14.011719 6.53125 L 14.011719 17.46875 C 14.011719 17.800781 13.828125 18.101562 13.539062 18.257812 C 13.25 18.414062 12.898438 18.394531 12.621094 18.214844 C 10.476562 16.78125 6.386719 14.054688 4.417969 12.742188 "/>
<path style=" stroke:none;fill-rule:evenodd;fill:rgb(64.7%,64.7%,64.7%);fill-opacity:1;" d="M 4.019531 6.460938 C 4.019531 6.152344 3.882812 5.90625 3.714844 5.90625 L 1.894531 5.90625 C 1.726562 5.90625 1.589844 6.152344 1.589844 6.460938 L 1.589844 17.539062 C 1.589844 17.847656 1.726562 18.09375 1.894531 18.09375 L 3.714844 18.09375 C 3.882812 18.09375 4.019531 17.847656 4.019531 17.539062 Z M 4.019531 6.460938 "/>
</g>
</svg>
