<?xml version="1.0" encoding="UTF-8"?>
<svg xmlns="http://www.w3.org/2000/svg" xmlns:xlink="http://www.w3.org/1999/xlink" width="24pt" height="24pt" viewBox="0 0 24 24" version="1.1">
<g id="surface1">
<path style=" stroke:none;fill-rule:evenodd;fill:rgb(64.7%,64.7%,64.7%);fill-opacity:1;" d="M 22.300781 11.113281 C 22.632812 11.285156 22.839844 11.628906 22.839844 12 C 22.839844 12.371094 22.632812 12.714844 22.300781 12.886719 C 17.960938 15.152344 6.53125 21.113281 2.460938 23.238281 C 2.152344 23.398438 1.78125 23.386719 1.480469 23.207031 C 1.183594 23.023438 1 22.699219 1 22.351562 C 1 17.960938 1 6.039062 1 1.648438 C 1 1.300781 1.183594 0.976562 1.480469 0.792969 C 1.78125 0.613281 2.152344 0.601562 2.460938 0.761719 C 6.53125 2.886719 17.960938 8.847656 22.300781 11.113281 Z M 22.300781 11.113281 "/>
</g>
</svg>
