<?xml version="1.0" encoding="UTF-8" standalone="no"?>
<svg
   xmlns:dc="http://purl.org/dc/elements/1.1/"
   xmlns:cc="http://creativecommons.org/ns#"
   xmlns:rdf="http://www.w3.org/1999/02/22-rdf-syntax-ns#"
   xmlns:svg="http://www.w3.org/2000/svg"
   xmlns="http://www.w3.org/2000/svg"
   xmlns:sodipodi="http://sodipodi.sourceforge.net/DTD/sodipodi-0.dtd"
   xmlns:inkscape="http://www.inkscape.org/namespaces/inkscape"
   width="14pt"
   height="14pt"
   viewBox="0 0 14 14"
   version="1.1"
   id="svg3762"
   sodipodi:docname="playlist.svg"
   inkscape:version="0.92.2 5c3e80d, 2017-08-06">
  <metadata
     id="metadata3768">
    <rdf:RDF>
      <cc:Work
         rdf:about="">
        <dc:format>image/svg+xml</dc:format>
        <dc:type
           rdf:resource="http://purl.org/dc/dcmitype/StillImage" />
      </cc:Work>
    </rdf:RDF>
  </metadata>
  <defs
     id="defs3766" />
  <sodipodi:namedview
     pagecolor="#ffffff"
     bordercolor="#666666"
     borderopacity="1"
     objecttolerance="10"
     gridtolerance="10"
     guidetolerance="10"
     inkscape:pageopacity="0"
     inkscape:pageshadow="2"
     inkscape:window-width="1438"
     inkscape:window-height="883"
     id="namedview3764"
     showgrid="false"
     inkscape:zoom="59.093924"
     inkscape:cx="9.6291072"
     inkscape:cy="7.3325053"
     inkscape:window-x="595"
     inkscape:window-y="35"
     inkscape:window-maximized="0"
     inkscape:current-layer="surface1" />
  <g
     id="surface1"
     transform="translate(-1.974359,0.03589744)">
    <path
       style="fill:#A5A5A5;fill-opacity:1;fill-rule:evenodd;stroke:none"
       d="M 13.987308,3.5634582 H 5.9873083 c -0.550781,0 -1,-0.449219 -1,-1 0,-0.550781 0.449219,-1 1,-1 h 7.9999997 c 0.550781,0 1,0.449219 1,1 0,0.550781 -0.449219,1 -1,1 m 0,4.5000001 H 5.9873083 c -0.550781,0 -1,-0.449219 -1,-1 0,-0.550781 0.449219,-1 1,-1 h 7.9999997 c 0.550781,0 1,0.449219 1,1 0,0.550781 -0.449219,1 -1,1 m 0,4.5000007 H 5.9873083 c -0.550781,0 -1,-0.449219 -1,-1 0,-0.550782 0.449219,-1.000001 1,-1.000001 h 7.9999997 c 0.550781,0 1,0.449219 1,1.000001 0,0.550781 -0.449219,1 -1,1 M 3.9873083,3.5634582 h -2 v -2 h 2 z m 0,4.5000001 h -2 v -2 h 2 z m 0,4.5000007 h -2 v -2.000001 h 2 z"
       id="path3759"
       inkscape:connector-curvature="0"
       sodipodi:nodetypes="csssssccsssssccssssscccccccccccccccc" />
  </g>
</svg>
