<?xml version="1.0" encoding="UTF-8"?>
<svg xmlns="http://www.w3.org/2000/svg" xmlns:xlink="http://www.w3.org/1999/xlink" width="16.2pt" height="14pt" viewBox="0 0 16.2 14" version="1.1">
<defs>
<clipPath id="clip1">
  <path d="M 13 1 L 16.199219 1 L 16.199219 13 L 13 13 Z M 13 1 "/>
</clipPath>
</defs>
<g id="surface1">
<path style=" stroke:none;fill-rule:nonzero;fill:rgb(64.7%,64.7%,64.7%);fill-opacity:1;" d="M 8.03125 13.738281 C 8.03125 13.992188 7.886719 14.074219 7.710938 13.921875 L 3.355469 9.574219 C 3.175781 9.421875 3.03125 9.085938 3.03125 8.832031 L 3.03125 5.125 C 3.03125 4.867188 3.175781 4.535156 3.355469 4.378906 L 7.710938 0.0742188 C 7.886719 -0.0742188 8.03125 0.0078125 8.03125 0.261719 Z M 8.03125 13.738281 "/>
<path style=" stroke:none;fill-rule:nonzero;fill:rgb(64.7%,64.7%,64.7%);fill-opacity:1;" d="M 6.03125 9 C 6.03125 9.550781 5.492188 10 4.832031 10 L 1.199219 10 C 0.539062 10 0 9.550781 0 9 L 0 5 C 0 4.449219 0.539062 4 1.199219 4 L 4.832031 4 C 5.492188 4 6.03125 4.449219 6.03125 5 Z M 6.03125 9 "/>
<g clip-path="url(#clip1)" clip-rule="nonzero">
<path style=" stroke:none;fill-rule:nonzero;fill:rgb(64.7%,64.7%,64.7%);fill-opacity:1;" d="M 13.738281 12.679688 C 13.625 12.679688 13.507812 12.640625 13.414062 12.558594 C 13.203125 12.382812 13.175781 12.066406 13.355469 11.855469 C 15.808594 8.960938 15.808594 4.914062 13.355469 2.019531 C 13.175781 1.808594 13.203125 1.496094 13.414062 1.316406 C 13.625 1.136719 13.941406 1.164062 14.121094 1.375 C 16.894531 4.648438 16.894531 9.226562 14.121094 12.5 C 14.019531 12.617188 13.878906 12.679688 13.738281 12.679688 "/>
</g>
<path style=" stroke:none;fill-rule:nonzero;fill:rgb(64.7%,64.7%,64.7%);fill-opacity:1;" d="M 10.457031 10.710938 C 10.339844 10.710938 10.222656 10.667969 10.128906 10.585938 C 9.921875 10.402344 9.902344 10.085938 10.082031 9.878906 C 11.574219 8.183594 11.574219 5.816406 10.082031 4.121094 C 9.902344 3.914062 9.921875 3.597656 10.128906 3.414062 C 10.335938 3.230469 10.652344 3.253906 10.832031 3.460938 C 12.667969 5.542969 12.667969 8.457031 10.832031 10.539062 C 10.734375 10.652344 10.597656 10.710938 10.457031 10.710938 "/>
</g>
</svg>
