<?xml version="1.0" encoding="UTF-8" standalone="no"?>
<svg
   xmlns:dc="http://purl.org/dc/elements/1.1/"
   xmlns:cc="http://creativecommons.org/ns#"
   xmlns:rdf="http://www.w3.org/1999/02/22-rdf-syntax-ns#"
   xmlns:svg="http://www.w3.org/2000/svg"
   xmlns="http://www.w3.org/2000/svg"
   xmlns:sodipodi="http://sodipodi.sourceforge.net/DTD/sodipodi-0.dtd"
   xmlns:inkscape="http://www.inkscape.org/namespaces/inkscape"
   viewBox="0 0 24 24"
   enable-background="new 0 0 24 24"
   version="1.1"
   id="svg4"
   sodipodi:docname="link.svg"
   inkscape:version="0.92.2 5c3e80d, 2017-08-06">
  <metadata
     id="metadata10">
    <rdf:RDF>
      <cc:Work
         rdf:about="">
        <dc:format>image/svg+xml</dc:format>
        <dc:type
           rdf:resource="http://purl.org/dc/dcmitype/StillImage" />
      </cc:Work>
    </rdf:RDF>
  </metadata>
  <defs
     id="defs8" />
  <sodipodi:namedview
     pagecolor="#ffffff"
     bordercolor="#666666"
     borderopacity="1"
     objecttolerance="10"
     gridtolerance="10"
     guidetolerance="10"
     inkscape:pageopacity="0"
     inkscape:pageshadow="2"
     inkscape:window-width="774"
     inkscape:window-height="480"
     id="namedview6"
     showgrid="false"
     inkscape:zoom="9.8333333"
     inkscape:cx="12"
     inkscape:cy="12"
     inkscape:window-x="78"
     inkscape:window-y="48"
     inkscape:window-maximized="0"
     inkscape:current-layer="svg4" />
  <path
     style="line-height:normal;font-family:'Bitstream Vera Sans';-inkscape-font-specification:'Bitstream Vera Sans';text-indent:0;text-align:start;text-transform:none;overflow:visible;fill:#e5e5e5;stroke-width:0.74985105;enable-background:accumulate"
     d="m 7.1920804,3.2542373 c -1.0868152,0 -2.1781249,0.400673 -3.0029681,1.1980452 -1.6496862,1.5947444 -1.6496862,4.2111672 0,5.8059125 l 2.7884704,2.695601 A 0.76683688,0.74129778 0 1 0 8.0739043,11.917025 L 5.2616009,9.1983847 c -1.0669034,-1.0313707 -1.0669034,-2.6779614 0,-3.7093323 1.0669035,-1.0313708 2.7702224,-1.0313708 3.8371259,0 l 3.7417942,3.6171749 c 1.066903,1.0313707 1.066903,2.6779617 0,3.7093327 -0.124003,0.119872 -0.26621,0.207847 -0.405164,0.299511 a 0.7634963,0.73806845 0 0 0 0.857991,1.221085 c 0.216447,-0.142785 0.427923,-0.298473 0.619661,-0.483826 1.649685,-1.594744 1.649685,-4.2111671 0,-5.8059118 L 10.195049,4.4522825 C 9.3702056,3.6549103 8.2788956,3.2542373 7.1920804,3.2542373 Z m 3.9801246,6.5431699 a 0.76273483,0.73733234 0 0 0 -0.09533,0.023038 0.76273483,0.73733234 0 0 0 -0.309831,0.1382355 c -0.161592,0.1167083 -0.32905,0.2480693 -0.476662,0.3916683 -1.6496864,1.594744 -1.6496864,4.211167 0,5.805911 l 3.71796,3.594136 c 1.649686,1.594744 4.356251,1.594744 6.005937,0 1.649686,-1.594744 1.649686,-4.211167 0,-5.805911 l -2.788473,-2.672564 a 0.76273483,0.73733234 0 1 0 -1.072489,1.036771 l 2.78847,2.695602 c 1.066904,1.03137 1.066904,2.677962 0,3.709332 -1.066904,1.031371 -2.770222,1.031371 -3.837126,0 l -3.741794,-3.617175 c -1.066904,-1.03137 -1.066904,-2.677962 0,-3.709332 0.09338,-0.09085 0.206017,-0.155415 0.30983,-0.230394 A 0.76273483,0.73733234 0 0 0 11.172205,9.7974046 Z"
     overflow="visible"
     id="path2"
     inkscape:connector-curvature="0" />
</svg>
