<?xml version="1.0" encoding="UTF-8" standalone="no"?>
<!-- Generator: Adobe Illustrator 19.0.0, SVG Export Plug-In . SVG Version: 6.00 Build 0)  -->

<svg
   xmlns:dc="http://purl.org/dc/elements/1.1/"
   xmlns:cc="http://creativecommons.org/ns#"
   xmlns:rdf="http://www.w3.org/1999/02/22-rdf-syntax-ns#"
   xmlns:svg="http://www.w3.org/2000/svg"
   xmlns="http://www.w3.org/2000/svg"
   xmlns:sodipodi="http://sodipodi.sourceforge.net/DTD/sodipodi-0.dtd"
   xmlns:inkscape="http://www.inkscape.org/namespaces/inkscape"
   version="1.1"
   id="Layer_1"
   x="0px"
   y="0px"
   viewBox="0 0 496 496"
   style="enable-background:new 0 0 496 496;"
   xml:space="preserve"
   sodipodi:docname="logo_black.svg"
   inkscape:version="0.92.2 5c3e80d, 2017-08-06"><metadata
     id="metadata47"><rdf:RDF><cc:Work
         rdf:about=""><dc:format>image/svg+xml</dc:format><dc:type
           rdf:resource="http://purl.org/dc/dcmitype/StillImage" /></cc:Work></rdf:RDF></metadata><defs
     id="defs45" /><sodipodi:namedview
     pagecolor="#ffffff"
     bordercolor="#666666"
     borderopacity="1"
     objecttolerance="10"
     gridtolerance="10"
     guidetolerance="10"
     inkscape:pageopacity="0"
     inkscape:pageshadow="2"
     inkscape:window-width="1306"
     inkscape:window-height="813"
     id="namedview43"
     showgrid="false"
     inkscape:zoom="0.9516129"
     inkscape:cx="248"
     inkscape:cy="248"
     inkscape:window-x="264"
     inkscape:window-y="97"
     inkscape:window-maximized="0"
     inkscape:current-layer="Layer_1" /><path
     style="fill:#000000;"
     d="M 248 0 C 111.2 0 0 111.2 0 248 C 0 384.8 111.2 496 248 496 C 384.8 496 496 384.8 496 248 C 496 111.2 384.8 0 248 0 z M 213.59961 161.30078 C 215.79961 161.40078 218 161.99922 220 163.19922 L 321.59961 238.40039 C 324.79961 240.80039 326.40039 244 326.40039 248 C 326.40039 252 324.79961 255.19961 321.59961 257.59961 L 220 332.80078 C 217.6 333.60078 215.20078 334.40039 212.80078 334.40039 C 211.20078 334.40039 208.79922 333.60078 207.19922 332.80078 C 203.19922 331.20078 200 326.40039 200 322.40039 L 200 172.80078 C 200 168.80078 203.19922 164.00039 207.19922 162.40039 C 209.19922 161.60039 211.39961 161.20078 213.59961 161.30078 z "
     id="path2" /><g
     id="g12" /><g
     id="g14" /><g
     id="g16" /><g
     id="g18" /><g
     id="g20" /><g
     id="g22" /><g
     id="g24" /><g
     id="g26" /><g
     id="g28" /><g
     id="g30" /><g
     id="g32" /><g
     id="g34" /><g
     id="g36" /><g
     id="g38" /><g
     id="g40" /></svg>