<?xml version="1.0" encoding="UTF-8" standalone="no"?>
<svg
   xmlns:dc="http://purl.org/dc/elements/1.1/"
   xmlns:cc="http://creativecommons.org/ns#"
   xmlns:rdf="http://www.w3.org/1999/02/22-rdf-syntax-ns#"
   xmlns:svg="http://www.w3.org/2000/svg"
   xmlns="http://www.w3.org/2000/svg"
   xmlns:sodipodi="http://sodipodi.sourceforge.net/DTD/sodipodi-0.dtd"
   xmlns:inkscape="http://www.inkscape.org/namespaces/inkscape"
   width="16pt"
   height="15pt"
   viewBox="0 0 16 15"
   version="1.1"
   id="svg997"
   sodipodi:docname="repeat.svg"
   inkscape:version="0.92.2 5c3e80d, 2017-08-06">
  <metadata
     id="metadata1003">
    <rdf:RDF>
      <cc:Work
         rdf:about="">
        <dc:format>image/svg+xml</dc:format>
        <dc:type
           rdf:resource="http://purl.org/dc/dcmitype/StillImage" />
      </cc:Work>
    </rdf:RDF>
  </metadata>
  <defs
     id="defs1001" />
  <sodipodi:namedview
     pagecolor="#ffffff"
     bordercolor="#666666"
     borderopacity="1"
     objecttolerance="10"
     gridtolerance="10"
     guidetolerance="10"
     inkscape:pageopacity="0"
     inkscape:pageshadow="2"
     inkscape:window-width="1413"
     inkscape:window-height="725"
     id="namedview999"
     showgrid="false"
     inkscape:zoom="23.6"
     inkscape:cx="-0.47001186"
     inkscape:cy="10.559945"
     inkscape:window-x="412"
     inkscape:window-y="227"
     inkscape:window-maximized="0"
     inkscape:current-layer="svg997" />
  <g
     id="surface1"
     transform="translate(-0.03177966,-0.25423728)">
    <path
       style="fill:#A5A5A5;fill-opacity:1;fill-rule:nonzero;stroke:none"
       d="M 11,12 H 7 v 2.234375 L 4.265625,11.5 7,8.765625 V 11 h 4 c 1.890625,0 3.316406,-2 3.316406,-3 h 1 c 0,2 -1.894531,4 -4.316406,4 M 1.683594,8 h -1 C 0.683594,5 2.578125,3 5,3 H 9 V 0.765625 L 11.734375,3.5 9,6.234375 V 4 H 5 C 3.109375,4 1.683594,6 1.683594,8 M 13,0 H 3 C 1.351562,0 0,1.351562 0,3 v 9 c 0,1.648438 1.351562,3 3,3 h 10 c 1.648438,0 3,-1.351562 3,-3 V 3 C 16,1.351562 14.648438,0 13,0"
       id="path994"
       inkscape:connector-curvature="0" />
  </g>
</svg>
