<?xml version="1.0" encoding="UTF-8"?>
<svg xmlns="http://www.w3.org/2000/svg" xmlns:xlink="http://www.w3.org/1999/xlink" width="15pt" height="15pt" viewBox="0 0 15 15" version="1.1">
<g id="surface1">
<path style="fill:none;stroke-width:1;stroke-linecap:butt;stroke-linejoin:miter;stroke:#A5A5A5;stroke-opacity:1;stroke-miterlimit:10;" d="M 0 0 L -2 0 C -5.519531 0 -5.566406 -8 -9 -8 L -11 -8 " transform="matrix(1,0,0,-1,13,3.5)"/>
<path style=" stroke:none;fill-rule:nonzero;fill:#A5A5A5;fill-opacity:1;" d="M 12 6.234375 L 12 0.765625 L 14.734375 3.5 Z M 12 6.234375 "/>
<path style="fill:none;stroke-width:1;stroke-linecap:butt;stroke-linejoin:miter;stroke:#A5A5A5;stroke-opacity:1;stroke-miterlimit:10;" d="M 0 0 L -2 0 C -5.519531 0 -5.566406 8 -9 8 L -11 8 " transform="matrix(1,0,0,-1,13,11.5)"/>
<path style=" stroke:none;fill-rule:nonzero;fill:#A5A5A5;fill-opacity:1;" d="M 12 14.234375 L 12 8.765625 L 14.734375 11.5 Z M 12 14.234375 "/>
<path style="fill:none;stroke-width:1;stroke-linecap:butt;stroke-linejoin:miter;stroke:#A5A5A5;stroke-opacity:1;stroke-miterlimit:10;" d="M 0 0 L 1 0 " transform="matrix(1,0,0,-1,1,3.5)"/>
<path style="fill:none;stroke-width:1;stroke-linecap:butt;stroke-linejoin:miter;stroke:#A5A5A5;stroke-opacity:1;stroke-miterlimit:10;" d="M 0 0 L 1 0 " transform="matrix(1,0,0,-1,1,11.5)"/>
</g>
</svg>
