<?xml version="1.0" encoding="UTF-8" standalone="no"?>
<svg
   xmlns:dc="http://purl.org/dc/elements/1.1/"
   xmlns:cc="http://creativecommons.org/ns#"
   xmlns:rdf="http://www.w3.org/1999/02/22-rdf-syntax-ns#"
   xmlns:svg="http://www.w3.org/2000/svg"
   xmlns="http://www.w3.org/2000/svg"
   xmlns:sodipodi="http://sodipodi.sourceforge.net/DTD/sodipodi-0.dtd"
   xmlns:inkscape="http://www.inkscape.org/namespaces/inkscape"
   viewBox="0 0 16 16"
   version="1.1"
   id="svg4"
   sodipodi:docname="trash.svg"
   inkscape:version="0.92.2 5c3e80d, 2017-08-06">
  <metadata
     id="metadata10">
    <rdf:RDF>
      <cc:Work
         rdf:about="">
        <dc:format>image/svg+xml</dc:format>
        <dc:type
           rdf:resource="http://purl.org/dc/dcmitype/StillImage" />
      </cc:Work>
    </rdf:RDF>
  </metadata>
  <defs
     id="defs8" />
  <sodipodi:namedview
     pagecolor="#ffffff"
     bordercolor="#666666"
     borderopacity="1"
     objecttolerance="10"
     gridtolerance="10"
     guidetolerance="10"
     inkscape:pageopacity="0"
     inkscape:pageshadow="2"
     inkscape:window-width="1454"
     inkscape:window-height="784"
     id="namedview6"
     showgrid="false"
     inkscape:zoom="14.75"
     inkscape:cx="-16.40678"
     inkscape:cy="8"
     inkscape:window-x="56"
     inkscape:window-y="0"
     inkscape:window-maximized="0"
     inkscape:current-layer="svg4" />
  <path
     style="font-weight:400;line-height:normal;font-family:sans-serif;text-indent:0;text-align:start;text-decoration:none;text-decoration-line:none;text-decoration-style:solid;text-decoration-color:#000000;text-transform:none;white-space:normal;overflow:visible;isolation:auto;mix-blend-mode:normal;fill:#a5a5a5;stroke-width:1.01225162"
     d="M 6.4628692,1.5 C 5.6218209,1.5 4.9298919,2.1752812 4.9298919,2.9960938 V 3.5 h -3.07396 v 1 H 2.8805852 V 13 c 0,0.822531 0.6941704,1.5 1.5369799,1.5 h 6.1479199 c 0.842809,0 1.536979,-0.677469 1.536979,-1.5 V 4.5 h 1.024655 v -1 H 10.053158 V 2.9960938 C 10.053158,2.1752812 9.3612285,1.5 8.5201809,1.5 Z m 0,1 h 2.0573117 c 0.2881201,0 0.5083246,0.2149062 0.5083246,0.4960938 V 3.5 H 5.9545452 V 2.9960938 C 5.9545452,2.7149062 6.1747494,2.5 6.4628692,2.5 Z m -2.5576306,2 h 1.0246533 1.0246533 3.0739603 1.0246525 1.024654 V 13 c 0,0.281469 -0.223918,0.5 -0.512327,0.5 H 4.4175651 C 4.1291575,13.5 3.9052386,13.281469 3.9052386,13 Z m 1.0246533,1 v 7 h 1.0246533 v -7 z m 2.0493065,0 v 7 h 1.0246533 v -7 z m 2.0493071,0 v 7 h 1.0246525 v -7 z"
     font-weight="400"
     overflow="visible"
     id="path2"
     inkscape:connector-curvature="0" />
</svg>
